<?xml version="1.0" standalone="no"?>
<!DOCTYPE svg PUBLIC "-//W3C//DTD SVG 20010904//EN"
 "http://www.w3.org/TR/2001/REC-SVG-20010904/DTD/svg10.dtd">
<svg version="1.0" xmlns="http://www.w3.org/2000/svg"
 width="1280.000000pt" height="958.000000pt" viewBox="0 0 1280.000000 958.000000"
 preserveAspectRatio="xMidYMid meet">
<g transform="translate(0.000000,958.000000) scale(0.100000,-0.100000)"
fill="#000000" stroke="none">
<path d="M6247 9568 c-21 -11 -2637 -843 -2702 -859 -27 -6 -63 -18 -80 -26
-23 -10 -2409 -771 -3303 -1053 -116 -36 -131 -44 -115 -54 10 -7 519 -268
1132 -581 613 -313 1122 -576 1133 -585 18 -15 18 -17 1 -95 -16 -73 -18 -138
-15 -730 2 -357 4 -704 5 -770 l2 -120 90 -3 c50 -1 97 2 105 7 19 13 20 367
2 906 -14 413 -6 655 22 683 11 11 113 -38 592 -283 318 -163 582 -299 586
-303 4 -4 14 -97 22 -207 9 -110 20 -258 26 -330 6 -71 24 -308 40 -525 17
-217 37 -487 46 -600 9 -113 16 -239 15 -280 -5 -472 183 -1045 428 -1303 82
-87 132 -119 302 -198 584 -269 1099 -419 1694 -491 175 -21 773 -18 950 5
757 99 1445 338 1900 660 220 155 403 385 449 563 39 152 72 541 63 739 -4 71
-11 184 -16 250 -6 66 -15 185 -21 265 -6 80 -15 204 -20 275 -5 72 -14 192
-20 268 -5 75 -15 199 -20 275 -6 75 -15 198 -20 272 -6 74 -15 194 -20 265
-6 72 -13 173 -16 226 l-7 95 1544 854 c849 469 1588 878 1642 908 53 29 97
57 97 61 0 4 -244 75 -542 159 -299 83 -1074 299 -1723 481 -649 181 -1850
517 -2670 745 -819 229 -1506 422 -1526 430 -23 8 -42 10 -52 4z"/>
<path d="M2133 4312 c8 -101 48 -196 117 -282 18 -22 27 -78 64 -392 26 -225
48 -374 56 -383 10 -12 12 -88 7 -368 -7 -422 -20 -642 -88 -1462 -57 -697
-77 -1094 -59 -1153 41 -125 139 -215 282 -256 72 -21 92 -20 186 4 133 35
217 83 307 174 93 94 141 183 157 285 26 179 -39 676 -212 1601 -163 872 -221
1198 -221 1235 0 22 -18 203 -41 402 l-41 362 21 49 c30 69 52 158 52 209 l0
43 -296 0 -297 0 6 -68z"/>
</g>
</svg>
